{
  "accessors": [
    {
      "bufferView": 2,
      "componentType": 5126,
      "count": 11808,
      "max": [
        0.7818549871444702,
        0.7818581461906433,
        1.0847877264022827
      ],
      "min": [
        -0.7818732261657715,
        -0.7821091413497925,
        -0.15564371645450592
      ],
      "type": "VEC3"
    },
    {
      "bufferView": 2,
      "byteOffset": 141696,
      "componentType": 5126,
      "count": 11808,
      "max": [
        1.0,
        1.0,
        0.9993151426315308
      ],
      "min": [
        -0.9999999403953552,
        -1.0,
        -1.0
      ],
      "type": "VEC3"
    },
    {
      "bufferView": 1,
      "componentType": 5126,
      "count": 11808,
      "max": [
        0.9991742372512817,
        0.9983959197998047
      ],
      "min": [
        0.0008257611189037561,
        0.0008257611189037561
      ],
      "type": "VEC2"
    },
    {
      "bufferView": 0,
      "componentType": 5125,
      "count": 11814,
      "type": "SCALAR"
    },
    {
      "bufferView": 2,
      "byteOffset": 283392,
      "componentType": 5126,
      "count": 22624,
      "max": [
        0.8307257890701294,
        0.12154722958803177,
        0.9064936637878418
      ],
      "min": [
        -0.17089912295341492,
        -1.5021421909332275,
        -1.1157455444335938
      ],
      "type": "VEC3"
    },
    {
      "bufferView": 2,
      "byteOffset": 554880,
      "componentType": 5126,
      "count": 22624,
      "max": [
        0.999989926815033,
        0.9985930323600769,
        0.9999316334724426
      ],
      "min": [
        -0.999991774559021,
        -0.999868631362915,
        -0.9996876120567322
      ],
      "type": "VEC3"
    },
    {
      "bufferView": 0,
      "byteOffset": 47256,
      "componentType": 5125,
      "count": 23028,
      "type": "SCALAR"
    },
    {
      "bufferView": 2,
      "byteOffset": 826368,
      "componentType": 5126,
      "count": 1428,
      "max": [
        35.50691223144531,
        15.865777015686035,
        57.8193359375
      ],
      "min": [
        -6.693845748901367,
        -6.133583068847656,
        -21.214765548706055
      ],
      "type": "VEC3"
    },
    {
      "bufferView": 2,
      "byteOffset": 843504,
      "componentType": 5126,
      "count": 1428,
      "max": [
        0.9628429412841797,
        1.0,
        1.0
      ],
      "min": [
        -0.9628429412841797,
        -1.0,
        -1.0
      ],
      "type": "VEC3"
    },
    {
      "bufferView": 0,
      "byteOffset": 139368,
      "componentType": 5125,
      "count": 8160,
      "type": "SCALAR"
    },
    {
      "bufferView": 2,
      "byteOffset": 860640,
      "componentType": 5126,
      "count": 120,
      "max": [
        0.6333936452865601,
        1.0015819072723389,
        0.6182447075843811
      ],
      "min": [
        -0.6211782097816467,
        -1.7207355499267578,
        -0.6351609230041504
      ],
      "type": "VEC3"
    },
    {
      "bufferView": 2,
      "byteOffset": 862080,
      "componentType": 5126,
      "count": 120,
      "max": [
        0.9864808320999146,
        0.17720790207386017,
        0.9986210465431213
      ],
      "min": [
        -0.902547299861908,
        0.03208262845873833,
        -0.962274432182312
      ],
      "type": "VEC3"
    },
    {
      "bufferView": 0,
      "byteOffset": 172008,
      "componentType": 5125,
      "count": 216,
      "type": "SCALAR"
    },
    {
      "bufferView": 2,
      "byteOffset": 863520,
      "componentType": 5126,
      "count": 24,
      "max": [
        0.8040419220924377,
        0.8040416836738586,
        2.8182108402252197
      ],
      "min": [
        -0.8040417432785034,
        -0.8040416836738586,
        0.207228422164917
      ],
      "type": "VEC3"
    },
    {
      "bufferView": 2,
      "byteOffset": 863808,
      "componentType": 5126,
      "count": 24,
      "max": [
        1.0,
        1.0,
        1.0
      ],
      "min": [
        -1.0,
        -1.0,
        -1.0
      ],
      "type": "VEC3"
    },
    {
      "bufferView": 1,
      "byteOffset": 94464,
      "componentType": 5126,
      "count": 24,
      "max": [
        0.9998862743377686,
        0.6561936736106873
      ],
      "min": [
        0.00011369428102625534,
        0.00011369428102625534
      ],
      "type": "VEC2"
    },
    {
      "bufferView": 0,
      "byteOffset": 172872,
      "componentType": 5125,
      "count": 36,
      "type": "SCALAR"
    },
    {
      "bufferView": 2,
      "byteOffset": 864096,
      "componentType": 5126,
      "count": 20,
      "max": [
        1.0,
        1.0,
        1.0
      ],
      "min": [
        -1.0,
        -1.0,
        -1.0
      ],
      "type": "VEC3"
    },
    {
      "bufferView": 2,
      "byteOffset": 864336,
      "componentType": 5126,
      "count": 20,
      "max": [
        1.0,
        1.0,
        0.0
      ],
      "min": [
        -1.0,
        -1.0,
        -1.0
      ],
      "type": "VEC3"
    },
    {
      "bufferView": 0,
      "byteOffset": 173016,
      "componentType": 5125,
      "count": 30,
      "type": "SCALAR"
    }
  ],
  "asset": {
    "extras": {
      "author": "Loïc Norgeot (https://sketchfab.com/norgeotloic)",
      "license": "CC-BY-4.0 (http://creativecommons.org/licenses/by/4.0/)",
      "source": "https://sketchfab.com/3d-models/abstract-aquarium-5e234313afca4676b4dd286d542ed629",
      "title": "Abstract aquarium"
    },
    "generator": "Sketchfab-12.63.0",
    "version": "2.0"
  },
  "bufferViews": [
    {
      "buffer": 0,
      "byteLength": 173136,
      "name": "floatBufferViews",
      "target": 34963
    },
    {
      "buffer": 0,
      "byteLength": 94656,
      "byteOffset": 173136,
      "byteStride": 8,
      "name": "floatBufferViews",
      "target": 34962
    },
    {
      "buffer": 0,
      "byteLength": 864576,
      "byteOffset": 267792,
      "byteStride": 12,
      "name": "floatBufferViews",
      "target": 34962
    }
  ],
  "buffers": [
    {
      "byteLength": 1132368,
      "uri": "scene.bin"
    }
  ],
  "extensionsUsed": [
    "KHR_materials_transmission"
  ],
  "images": [
    {
      "uri": "textures/decor_emissive.png"
    }
  ],
  "materials": [
    {
      "doubleSided": true,
      "emissiveFactor": [
        1.0,
        1.0,
        1.0
      ],
      "emissiveTexture": {
        "index": 0
      },
      "name": "decor",
      "pbrMetallicRoughness": {
        "baseColorFactor": [
          0.0,
          0.0,
          0.0,
          1.0
        ],
        "metallicFactor": 0.0,
        "roughnessFactor": 0.9577051495
      }
    },
    {
      "alphaMode": "BLEND",
      "doubleSided": true,
      "emissiveFactor": [
        0.6790123457,
        0.6790123457,
        0.6790123457
      ],
      "name": "petitpoisson",
      "pbrMetallicRoughness": {
        "baseColorFactor": [
          0.0,
          0.0,
          0.0,
          0.1234567901
        ],
        "metallicFactor": 0.0
      }
    },
    {
      "alphaMode": "BLEND",
      "doubleSided": true,
      "emissiveFactor": [
        1.0,
        1.0,
        1.0
      ],
      "name": "bulles",
      "pbrMetallicRoughness": {
        "baseColorFactor": [
          0.8,
          0.8,
          0.8,
          0.1666666667
        ],
        "metallicFactor": 0.0,
        "roughnessFactor": 0.9577051495
      }
    },
    {
      "alphaMode": "BLEND",
      "emissiveFactor": [
        1.0,
        1.0,
        1.0
      ],
      "name": "rayons",
      "pbrMetallicRoughness": {
        "baseColorFactor": [
          0.7076012527,
          1.0,
          0.0,
          0.0185185185
        ],
        "metallicFactor": 0.0
      }
    },
    {
      "alphaMode": "BLEND",
      "doubleSided": true,
      "extensions": {
        "KHR_materials_transmission": {
          "transmissionFactor": 0.3271604938
        }
      },
      "name": "resine",
      "pbrMetallicRoughness": {
        "baseColorFactor": [
          0.0,
          0.0,
          0.0,
          0.6728395062
        ],
        "metallicFactor": 0.0
      }
    },
    {
      "alphaMode": "BLEND",
      "doubleSided": true,
      "extensions": {
        "KHR_materials_transmission": {
          "transmissionFactor": 0.01851851849999997
        }
      },
      "name": "support",
      "pbrMetallicRoughness": {
        "baseColorFactor": [
          0.0,
          0.0,
          0.0,
          0.9814814815
        ],
        "metallicFactor": 0.0
      }
    }
  ],
  "meshes": [
    {
      "name": "decor_decor_0",
      "primitives": [
        {
          "attributes": {
            "NORMAL": 1,
            "POSITION": 0,
            "TEXCOORD_0": 2
          },
          "indices": 3,
          "material": 0,
          "mode": 4
        }
      ]
    },
    {
      "name": "petitpoisson.013_petitpoisson_0",
      "primitives": [
        {
          "attributes": {
            "NORMAL": 5,
            "POSITION": 4
          },
          "indices": 6,
          "material": 1,
          "mode": 4
        }
      ]
    },
    {
      "name": "bulles_bulles_0",
      "primitives": [
        {
          "attributes": {
            "NORMAL": 8,
            "POSITION": 7
          },
          "indices": 9,
          "material": 2,
          "mode": 4
        }
      ]
    },
    {
      "name": "rayons_rayons_0",
      "primitives": [
        {
          "attributes": {
            "NORMAL": 11,
            "POSITION": 10
          },
          "indices": 12,
          "material": 3,
          "mode": 4
        }
      ]
    },
    {
      "name": "veerre_resine_0",
      "primitives": [
        {
          "attributes": {
            "NORMAL": 14,
            "POSITION": 13,
            "TEXCOORD_0": 15
          },
          "indices": 16,
          "material": 4,
          "mode": 4
        }
      ]
    },
    {
      "name": "support_support_0",
      "primitives": [
        {
          "attributes": {
            "NORMAL": 18,
            "POSITION": 17
          },
          "indices": 19,
          "material": 5,
          "mode": 4
        }
      ]
    }
  ],
  "nodes": [
    {
      "children": [
        1
      ],
      "matrix": [
        1.0,
        0.0,
        0.0,
        0.0,
        0.0,
        2.220446049250313e-16,
        -1.0,
        0.0,
        0.0,
        1.0,
        2.220446049250313e-16,
        0.0,
        0.0,
        0.0,
        0.0,
        1.0
      ],
      "name": "Sketchfab_model"
    },
    {
      "children": [
        2
      ],
      "matrix": [
        1.0,
        0.0,
        0.0,
        0.0,
        0.0,
        0.0,
        1.0,
        0.0,
        0.0,
        -1.0,
        0.0,
        0.0,
        0.0,
        0.0,
        0.0,
        1.0
      ],
      "name": "e3980754db0c49318b2e3d07fd7e3661.fbx"
    },
    {
      "children": [
        3,
        5,
        7,
        9,
        11,
        13
      ],
      "name": "RootNode"
    },
    {
      "children": [
        4
      ],
      "matrix": [
        124.86453247070313,
        0.0,
        0.0,
        0.0,
        0.0,
        -5.458002283872867e-06,
        -124.864532470703,
        0.0,
        0.0,
        99.9999999999999,
        -4.371139006309477e-06,
        0.0,
        0.0,
        0.0,
        0.0,
        1.0
      ],
      "name": "decor"
    },
    {
      "mesh": 0,
      "name": "decor_decor_0"
    },
    {
      "children": [
        6
      ],
      "matrix": [
        124.87598549412216,
        7.472938631160982,
        38.962909465149856,
        0.0,
        36.76673318246813,
        26.546159690534157,
        -122.92870136160117,
        0.0,
        -14.90502517355405,
        128.09144125609325,
        23.203098538807694,
        0.0,
        32.61873245239258,
        167.18910217285156,
        -92.31819915771484,
        1.0
      ],
      "name": "petitpoisson.013"
    },
    {
      "mesh": 1,
      "name": "petitpoisson.013_petitpoisson_0"
    },
    {
      "children": [
        8
      ],
      "matrix": [
        2.2485132217407227,
        0.0,
        0.0,
        0.0,
        -0.0,
        -9.828563849753463e-08,
        -2.2485132217407204,
        0.0,
        0.0,
        2.2485132217407204,
        -9.828563849753463e-08,
        0.0,
        -65.47239685058594,
        111.52757263183594,
        -0.028309226036071777,
        1.0
      ],
      "name": "bulles"
    },
    {
      "mesh": 2,
      "name": "bulles_bulles_0"
    },
    {
      "children": [
        10
      ],
      "matrix": [
        100.0,
        0.0,
        0.0,
        0.0,
        0.0,
        99.9999999999999,
        4.371138828673792e-06,
        0.0,
        0.0,
        -4.371138828673792e-06,
        99.9999999999999,
        0.0,
        0.0,
        181.8210906982422,
        0.0,
        1.0
      ],
      "name": "rayons"
    },
    {
      "mesh": 3,
      "name": "rayons_rayons_0"
    },
    {
      "children": [
        12
      ],
      "matrix": [
        124.37165832519531,
        0.0,
        0.0,
        0.0,
        0.0,
        -5.43645806984656e-06,
        -124.37165832519518,
        0.0,
        0.0,
        99.9999999999999,
        -4.371139006309477e-06,
        0.0,
        0.0,
        0.0,
        0.0,
        1.0
      ],
      "name": "veerre"
    },
    {
      "mesh": 4,
      "name": "veerre_resine_0"
    },
    {
      "children": [
        14
      ],
      "matrix": [
        100.0,
        0.0,
        0.0,
        0.0,
        0.0,
        -4.371139006309477e-06,
        -99.9999999999999,
        0.0,
        0.0,
        20.722818374633768,
        -9.058231971802851e-07,
        0.0,
        0.0,
        0.0,
        0.0,
        1.0
      ],
      "name": "support"
    },
    {
      "mesh": 5,
      "name": "support_support_0"
    }
  ],
  "samplers": [
    {
      "magFilter": 9729,
      "minFilter": 9987,
      "wrapS": 10497,
      "wrapT": 10497
    }
  ],
  "scene": 0,
  "scenes": [
    {
      "name": "Sketchfab_Scene",
      "nodes": [
        0
      ]
    }
  ],
  "textures": [
    {
      "sampler": 0,
      "source": 0
    }
  ]
}
